<svg width="225" height="72" viewBox="0 0 225 72" fill="none" xmlns="http://www.w3.org/2000/svg">
<path d="M70.5385 36.2906C69.4378 36.9225 68.1026 37.4219 66.533 37.7888C64.9634 38.1558 63.3326 38.3392 61.6407 38.3392C59.3576 38.3392 57.4109 38.064 55.8006 37.5137C54.2106 36.9633 53.0079 36.1989 52.1925 35.2204C51.3975 34.2419 51 33.1106 51 31.8264C51 30.7052 51.3058 29.7166 51.9173 28.8604C52.5288 28.0043 53.3748 27.3418 54.4552 26.8729C53.6194 26.4449 52.9773 25.8537 52.5288 25.0995C52.1008 24.3249 51.8867 23.4789 51.8867 22.5616C51.8867 21.3793 52.2536 20.2989 52.9875 19.3205C53.7417 18.342 54.8832 17.5572 56.4121 16.9661C57.9409 16.3749 59.8265 16.0793 62.0688 16.0793C63.4753 16.0793 64.8615 16.2118 66.2272 16.4768C67.593 16.7418 68.7957 17.0986 69.8353 17.547L68.1841 22.0724C66.2884 21.2366 64.3315 20.8187 62.3134 20.8187C60.8661 20.8187 59.7857 21.0124 59.0723 21.3997C58.3588 21.7666 58.0021 22.2864 58.0021 22.9591C58.0021 24.1822 58.8888 24.7937 60.6623 24.7937H66.7165V29.4108H60.2648C59.2251 29.4108 58.4403 29.5841 57.9103 29.9306C57.3804 30.2568 57.1154 30.746 57.1154 31.3983C57.1154 32.0914 57.5027 32.6316 58.2773 33.0189C59.0519 33.4062 60.2546 33.5998 61.8853 33.5998C63.0472 33.5998 64.2397 33.4469 65.4628 33.1412C66.7063 32.815 67.7866 32.3768 68.7039 31.8264L70.5385 36.2906Z" fill="white"/>
<path d="M86.1224 29.2274C88.0182 29.8593 88.9661 31.1639 88.9661 33.1412C88.9661 34.6292 88.3851 35.8014 87.2232 36.6575C86.0613 37.4933 84.349 37.9112 82.0863 37.9112H72.7604V21.3385H81.6582C83.819 21.3385 85.4905 21.7157 86.6728 22.4699C87.8755 23.2241 88.4768 24.2841 88.4768 25.6499C88.4768 26.4449 88.273 27.1481 87.8653 27.7597C87.4576 28.3712 86.8767 28.8604 86.1224 29.2274ZM77.9584 28.0043H81.1384C82.4838 28.0043 83.1565 27.5049 83.1565 26.506C83.1565 25.5479 82.4838 25.0689 81.1384 25.0689H77.9584V28.0043ZM81.5665 34.1502C82.973 34.1502 83.6763 33.6406 83.6763 32.6214C83.6763 31.6021 82.9934 31.0925 81.6276 31.0925H77.9584V34.1502H81.5665Z" fill="white"/>
<path d="M99.6672 32.0098H97.7103V37.9112H91.9007V21.3385H97.7103V27.4539H99.7895L103.856 21.3385H110.002L104.437 29.2885L110.369 37.9112H103.52L99.6672 32.0098Z" fill="white"/>
<path d="M129.174 21.3385V37.9112H123.364V25.9556H119.175L119.053 28.4935C118.971 30.6543 118.757 32.4379 118.411 33.8444C118.064 35.251 117.493 36.3517 116.698 37.1467C115.903 37.9213 114.813 38.3087 113.427 38.3087C112.713 38.3087 111.775 38.1761 110.613 37.9112L110.858 33.1718C111.225 33.2125 111.47 33.2329 111.592 33.2329C112.224 33.2329 112.703 33.0291 113.029 32.6214C113.355 32.2137 113.579 31.6735 113.702 31.0008C113.824 30.3077 113.906 29.3904 113.946 28.2489L114.191 21.3385H129.174Z" fill="white"/>
<path d="M150.14 21.3385V37.9112H144.605V36.1683C143.994 36.8206 143.26 37.32 142.404 37.6665C141.568 38.0131 140.671 38.1863 139.713 38.1863C137.552 38.1863 135.83 37.5544 134.545 36.2906C133.282 35.0267 132.65 33.131 132.65 30.6033V21.3385H138.459V29.6554C138.459 32.0404 139.387 33.2329 141.242 33.2329C142.159 33.2329 142.903 32.9169 143.474 32.285C144.045 31.6327 144.33 30.6441 144.33 29.3191V21.3385H150.14Z" fill="white"/>
<path d="M171.682 21.3385V34.8841C171.682 37.9621 170.847 40.2656 169.175 41.7944C167.504 43.3436 165.098 44.1182 161.959 44.1182C160.328 44.1182 158.799 43.9348 157.372 43.5679C155.946 43.2009 154.733 42.6607 153.734 41.9473L155.844 37.8806C156.516 38.431 157.362 38.859 158.382 39.1648C159.421 39.491 160.44 39.654 161.439 39.654C162.968 39.654 164.089 39.3177 164.803 38.645C165.516 37.9723 165.873 36.9735 165.873 35.6485V35.0981C164.752 36.4027 163.111 37.055 160.95 37.055C159.482 37.055 158.127 36.7289 156.883 36.0765C155.64 35.4039 154.651 34.4662 153.917 33.2635C153.183 32.0404 152.817 30.6339 152.817 29.0439C152.817 27.4743 153.183 26.0881 153.917 24.8855C154.651 23.6624 155.64 22.7247 156.883 22.0724C158.127 21.3997 159.482 21.0634 160.95 21.0634C163.315 21.0634 165.047 21.8278 166.148 23.3566V21.3385H171.682ZM162.326 32.4379C163.366 32.4379 164.222 32.122 164.894 31.49C165.587 30.8581 165.934 30.0427 165.934 29.0439C165.934 28.0451 165.598 27.2399 164.925 26.6283C164.252 25.9964 163.386 25.6804 162.326 25.6804C161.266 25.6804 160.389 25.9964 159.696 26.6283C159.024 27.2399 158.687 28.0451 158.687 29.0439C158.687 30.0427 159.034 30.8581 159.727 31.49C160.42 32.122 161.286 32.4379 162.326 32.4379Z" fill="white"/>
<path d="M60.4259 46.0099V55.9886H57.6319V48.248H53.8399V55.9886H51.0601V46.0099H60.4259Z" fill="white"/>
<path d="M66.5363 48.1339C67.3822 48.1339 68.1187 48.2955 68.7459 48.6186C69.3732 48.9417 69.8531 49.4074 70.1857 50.0156C70.5278 50.6143 70.6989 51.3176 70.6989 52.1254C70.6989 52.9237 70.5421 53.627 70.2285 54.2352C69.9149 54.8339 69.4729 55.2996 68.9027 55.6322C68.3325 55.9554 67.672 56.1169 66.9212 56.1169C66.0374 56.1169 65.3436 55.8461 64.84 55.3044V58.7542H62.1314V52.1539C62.1314 51.3556 62.312 50.6524 62.6731 50.0441C63.0343 49.4359 63.5475 48.9655 64.2127 48.6329C64.878 48.3002 65.6525 48.1339 66.5363 48.1339ZM66.408 53.9644C66.8927 53.9644 67.2824 53.798 67.577 53.4654C67.8811 53.1233 68.0332 52.6766 68.0332 52.1254C68.0332 51.5742 67.8811 51.1323 67.577 50.7997C67.2824 50.4575 66.8927 50.2865 66.408 50.2865C65.9234 50.2865 65.5337 50.4575 65.2391 50.7997C64.9445 51.1323 64.7972 51.5742 64.7972 52.1254C64.7972 52.6861 64.9397 53.1328 65.2248 53.4654C65.5195 53.798 65.9139 53.9644 66.408 53.9644Z" fill="white"/>
<path d="M75.8141 56.1169C74.9873 56.1169 74.2413 55.9459 73.576 55.6037C72.9108 55.2616 72.3881 54.7864 72.008 54.1782C71.6373 53.57 71.452 52.881 71.452 52.1112C71.452 51.3509 71.6373 50.6666 72.008 50.0584C72.3881 49.4502 72.906 48.9797 73.5618 48.6471C74.227 48.305 74.9778 48.1339 75.8141 48.1339C76.6505 48.1339 77.4012 48.305 78.0665 48.6471C78.7317 48.9797 79.2497 49.4502 79.6203 50.0584C79.991 50.6571 80.1763 51.3414 80.1763 52.1112C80.1763 52.881 79.991 53.57 79.6203 54.1782C79.2497 54.7864 78.7317 55.2616 78.0665 55.6037C77.4012 55.9459 76.6505 56.1169 75.8141 56.1169ZM75.8141 53.9644C76.2893 53.9644 76.679 53.8028 76.9831 53.4797C77.2872 53.1471 77.4393 52.6909 77.4393 52.1112C77.4393 51.5409 77.2872 51.0943 76.9831 50.7712C76.679 50.448 76.2893 50.2865 75.8141 50.2865C75.339 50.2865 74.9493 50.448 74.6452 50.7712C74.3411 51.0943 74.189 51.5409 74.189 52.1112C74.189 52.6909 74.3411 53.1471 74.6452 53.4797C74.9493 53.8028 75.339 53.9644 75.8141 53.9644Z" fill="white"/>
<path d="M85.5379 54.0499C85.9085 54.0499 86.2269 53.9976 86.493 53.8931C86.7686 53.7885 87.0442 53.6175 87.3198 53.3799L88.7311 54.8625C87.9993 55.6988 86.9064 56.1169 85.4523 56.1169C84.5495 56.1169 83.7559 55.9459 83.0717 55.6037C82.3874 55.2616 81.8552 54.7864 81.4751 54.1782C81.1044 53.57 80.9191 52.881 80.9191 52.1112C80.9191 51.3509 81.1044 50.6714 81.4751 50.0726C81.8457 49.4644 82.3542 48.9892 83.0004 48.6471C83.6562 48.305 84.3879 48.1339 85.1957 48.1339C85.9465 48.1339 86.6308 48.2907 87.2485 48.6043C87.8758 48.9085 88.3747 49.3599 88.7453 49.9586C89.116 50.5478 89.3013 51.2511 89.3013 52.0684L83.7845 53.1233C84.0791 53.741 84.6635 54.0499 85.5379 54.0499ZM85.21 50.0584C84.7443 50.0584 84.3642 50.2057 84.0696 50.5003C83.775 50.7854 83.6086 51.1988 83.5706 51.7405L86.7068 51.1275C86.6118 50.8044 86.4312 50.5478 86.1651 50.3577C85.899 50.1582 85.5806 50.0584 85.21 50.0584Z" fill="white"/>
<path d="M94.2137 53.2373H93.3014V55.9886H90.5928V48.2622H93.3014V51.1133H94.2707L96.1667 48.2622H99.032L96.4376 51.9686L99.2031 55.9886H96.0099L94.2137 53.2373Z" fill="white"/>
<path d="M110.165 48.1339C111.116 48.1339 111.871 48.419 112.432 48.9892C113.002 49.5594 113.287 50.4195 113.287 51.5695V55.9886H110.579V52.0114C110.579 51.4697 110.474 51.0705 110.265 50.8139C110.066 50.5573 109.78 50.429 109.41 50.429C109.001 50.429 108.673 50.5716 108.426 50.8567C108.179 51.1418 108.056 51.5742 108.056 52.1539V55.9886H105.347V52.0114C105.347 50.9565 104.957 50.429 104.178 50.429C103.76 50.429 103.427 50.5716 103.18 50.8567C102.933 51.1418 102.81 51.5742 102.81 52.1539V55.9886H100.101V48.2622H102.681V49.0748C102.966 48.7611 103.304 48.5283 103.693 48.3763C104.093 48.2147 104.525 48.1339 104.991 48.1339C105.532 48.1339 106.017 48.2337 106.445 48.4333C106.872 48.6329 107.219 48.937 107.485 49.3456C107.789 48.956 108.174 48.6566 108.64 48.4475C109.106 48.2385 109.614 48.1339 110.165 48.1339Z" fill="white"/>
<path d="M114.927 48.2622H117.621V51.1275H120.401V48.2622H123.11V55.9886H120.401V53.2801H117.621V55.9886H114.927V48.2622Z" fill="white"/>
<path d="M128.615 56.2167C126.058 56.2167 124.78 55.119 124.78 52.9237V48.2622H127.474V50.7141C127.674 50.5811 127.94 50.4718 128.272 50.3863C128.615 50.3007 129.004 50.258 129.441 50.258C130.392 50.258 131.138 50.5003 131.679 50.985C132.221 51.4602 132.492 52.1682 132.492 53.109C132.492 54.1259 132.14 54.9005 131.437 55.4327C130.743 55.9554 129.802 56.2167 128.615 56.2167ZM133.133 48.2622H135.842V55.9886H133.133V48.2622ZM128.615 54.3635C128.985 54.3635 129.266 54.2542 129.456 54.0356C129.646 53.8171 129.741 53.5272 129.741 53.1661C129.741 52.8144 129.646 52.5388 129.456 52.3392C129.266 52.1397 128.99 52.0399 128.629 52.0399C128.372 52.0399 128.144 52.0874 127.945 52.1824C127.745 52.2775 127.588 52.4058 127.474 52.5673V53.1661C127.474 53.5367 127.569 53.8313 127.759 54.0499C127.949 54.259 128.234 54.3635 128.615 54.3635Z" fill="white"/>
<path d="M141.752 54.0499C142.123 54.0499 142.441 53.9976 142.707 53.8931C142.983 53.7885 143.258 53.6175 143.534 53.3799L144.945 54.8625C144.213 55.6988 143.12 56.1169 141.666 56.1169C140.764 56.1169 139.97 55.9459 139.286 55.6037C138.602 55.2616 138.069 54.7864 137.689 54.1782C137.319 53.57 137.133 52.881 137.133 52.1112C137.133 51.3509 137.319 50.6714 137.689 50.0726C138.06 49.4644 138.568 48.9892 139.215 48.6471C139.87 48.305 140.602 48.1339 141.41 48.1339C142.161 48.1339 142.845 48.2907 143.463 48.6043C144.09 48.9085 144.589 49.3599 144.959 49.9586C145.33 50.5478 145.515 51.2511 145.515 52.0684L139.999 53.1233C140.293 53.741 140.878 54.0499 141.752 54.0499ZM141.424 50.0584C140.958 50.0584 140.578 50.2057 140.284 50.5003C139.989 50.7854 139.823 51.1988 139.785 51.7405L142.921 51.1275C142.826 50.8044 142.645 50.5478 142.379 50.3577C142.113 50.1582 141.795 50.0584 141.424 50.0584Z" fill="white"/>
<path d="M154.833 56.1169C153.978 56.1169 153.213 55.9459 152.538 55.6037C151.863 55.2616 151.336 54.7864 150.955 54.1782C150.585 53.57 150.4 52.881 150.4 52.1112C150.4 51.3414 150.585 50.6571 150.955 50.0584C151.336 49.4502 151.863 48.9797 152.538 48.6471C153.213 48.305 153.978 48.1339 154.833 48.1339C155.707 48.1339 156.463 48.324 157.1 48.7041C157.736 49.0748 158.188 49.5927 158.454 50.258L156.358 51.3271C156.007 50.6334 155.493 50.2865 154.819 50.2865C154.334 50.2865 153.93 50.448 153.607 50.7712C153.293 51.0943 153.137 51.5409 153.137 52.1112C153.137 52.6909 153.293 53.1471 153.607 53.4797C153.93 53.8028 154.334 53.9644 154.819 53.9644C155.493 53.9644 156.007 53.6175 156.358 52.9237L158.454 53.9929C158.188 54.6581 157.736 55.1808 157.1 55.561C156.463 55.9316 155.707 56.1169 154.833 56.1169Z" fill="white"/>
<path d="M167.541 48.2622V55.9886H164.961V55.1761C164.676 55.4802 164.334 55.713 163.935 55.8746C163.545 56.0361 163.127 56.1169 162.68 56.1169C161.673 56.1169 160.87 55.8223 160.271 55.2331C159.682 54.6439 159.387 53.76 159.387 52.5816V48.2622H162.096V52.1397C162.096 53.2516 162.528 53.8076 163.393 53.8076C163.821 53.8076 164.167 53.6602 164.433 53.3656C164.7 53.0615 164.833 52.6006 164.833 51.9829V48.2622H167.541Z" fill="white"/>
<path d="M173.237 56.1169C172.382 56.1169 171.616 55.9459 170.942 55.6037C170.267 55.2616 169.74 54.7864 169.359 54.1782C168.989 53.57 168.803 52.881 168.803 52.1112C168.803 51.3414 168.989 50.6571 169.359 50.0584C169.74 49.4502 170.267 48.9797 170.942 48.6471C171.616 48.305 172.382 48.1339 173.237 48.1339C174.111 48.1339 174.867 48.324 175.503 48.7041C176.14 49.0748 176.592 49.5927 176.858 50.258L174.762 51.3271C174.411 50.6334 173.897 50.2865 173.223 50.2865C172.738 50.2865 172.334 50.448 172.011 50.7712C171.697 51.0943 171.54 51.5409 171.54 52.1112C171.54 52.6909 171.697 53.1471 172.011 53.4797C172.334 53.8028 172.738 53.9644 173.223 53.9644C173.897 53.9644 174.411 53.6175 174.762 52.9237L176.858 53.9929C176.592 54.6581 176.14 55.1808 175.503 55.561C174.867 55.9316 174.111 56.1169 173.237 56.1169Z" fill="white"/>
<path d="M188.055 48.1339C189.005 48.1339 189.761 48.419 190.321 48.9892C190.892 49.5594 191.177 50.4195 191.177 51.5695V55.9886H188.468V52.0114C188.468 51.4697 188.364 51.0705 188.155 50.8139C187.955 50.5573 187.67 50.429 187.299 50.429C186.891 50.429 186.563 50.5716 186.316 50.8567C186.069 51.1418 185.945 51.5742 185.945 52.1539V55.9886H183.237V52.0114C183.237 50.9565 182.847 50.429 182.068 50.429C181.649 50.429 181.317 50.5716 181.07 50.8567C180.823 51.1418 180.699 51.5742 180.699 52.1539V55.9886H177.991V48.2622H180.571V49.0748C180.856 48.7611 181.193 48.5283 181.583 48.3763C181.982 48.2147 182.414 48.1339 182.88 48.1339C183.422 48.1339 183.907 48.2337 184.334 48.4333C184.762 48.6329 185.109 48.937 185.375 49.3456C185.679 48.956 186.064 48.6566 186.53 48.4475C186.995 48.2385 187.504 48.1339 188.055 48.1339Z" fill="white"/>
<path d="M196.908 54.0499C197.279 54.0499 197.597 53.9976 197.863 53.8931C198.139 53.7885 198.414 53.6175 198.69 53.3799L200.101 54.8625C199.369 55.6988 198.277 56.1169 196.822 56.1169C195.92 56.1169 195.126 55.9459 194.442 55.6037C193.758 55.2616 193.225 54.7864 192.845 54.1782C192.475 53.57 192.289 52.881 192.289 52.1112C192.289 51.3509 192.475 50.6714 192.845 50.0726C193.216 49.4644 193.724 48.9892 194.371 48.6471C195.026 48.305 195.758 48.1339 196.566 48.1339C197.317 48.1339 198.001 48.2907 198.619 48.6043C199.246 48.9085 199.745 49.3599 200.115 49.9586C200.486 50.5478 200.671 51.2511 200.671 52.0684L195.155 53.1233C195.449 53.741 196.034 54.0499 196.908 54.0499ZM196.58 50.0584C196.114 50.0584 195.734 50.2057 195.44 50.5003C195.145 50.7854 194.979 51.1988 194.941 51.7405L198.077 51.1275C197.982 50.8044 197.801 50.5478 197.535 50.3577C197.269 50.1582 196.951 50.0584 196.58 50.0584Z" fill="white"/>
<path d="M209.461 55.9886V51.9258L207.48 55.3044H206.325L204.401 51.8688V55.9886H201.963V48.2622H204.814L206.967 52.2965L209.333 48.2622H211.885L211.899 55.9886H209.461Z" fill="white"/>
<path d="M217.404 56.2167C214.848 56.2167 213.57 55.119 213.57 52.9237V48.2622H216.264V50.7141C216.464 50.5811 216.73 50.4718 217.062 50.3863C217.404 50.3007 217.794 50.258 218.231 50.258C219.182 50.258 219.928 50.5003 220.469 50.985C221.011 51.4602 221.282 52.1682 221.282 53.109C221.282 54.1259 220.93 54.9005 220.227 55.4327C219.533 55.9554 218.592 56.2167 217.404 56.2167ZM221.923 48.2622H224.632V55.9886H221.923V48.2622ZM217.404 54.3635C217.775 54.3635 218.055 54.2542 218.245 54.0356C218.436 53.8171 218.531 53.5272 218.531 53.1661C218.531 52.8144 218.436 52.5388 218.245 52.3392C218.055 52.1397 217.78 52.0399 217.419 52.0399C217.162 52.0399 216.934 52.0874 216.734 52.1824C216.535 52.2775 216.378 52.4058 216.264 52.5673V53.1661C216.264 53.5367 216.359 53.8313 216.549 54.0499C216.739 54.259 217.024 54.3635 217.404 54.3635Z" fill="white"/>
<path d="M9.34487 42.7144L17.3506 24.2754H20.0364V29.492L14.3549 42.7144H18.5902V40.3385C18.5902 39.76 19.5543 39.7187 20.0364 39.7704V47.053C18.7142 47.053 18.5213 46.6054 18.5902 46.3816V44.3156H13.5802L1.18418 71.9999H0.71933L3.86998 62.4447C3.86998 62.4447 1.08088 61.36 2.01058 59.0358C2.94028 56.7115 8.51847 44.3156 8.51847 44.3156H2.01058V42.7144H9.34487Z" fill="url(#paint0_linear)"/>
<path d="M30.2114 42.7144L22.2057 24.2754H19.5199V29.492L25.2014 42.7144H20.9661V40.3385C20.9661 39.76 20.002 39.7187 19.5199 39.7704V47.053C20.8421 47.053 21.035 46.6054 20.9661 46.3816V44.3156H25.9761L38.3721 71.9999H38.837L35.6863 62.4447C35.6863 62.4447 38.4754 61.36 37.5457 59.0358C36.616 56.7115 31.0378 44.3156 31.0378 44.3156H37.5457V42.7144H30.2114Z" fill="url(#paint1_linear)"/>
<path fill-rule="evenodd" clip-rule="evenodd" d="M19.8298 21.5897C22.8535 21.5897 25.3047 19.1385 25.3047 16.1148C25.3047 13.0911 22.8535 10.6399 19.8298 10.6399C16.8061 10.6399 14.3549 13.0911 14.3549 16.1148C14.3549 19.1385 16.8061 21.5897 19.8298 21.5897ZM19.8298 24.5854C24.508 24.5854 28.3004 20.793 28.3004 16.1148C28.3004 11.4366 24.508 7.64419 19.8298 7.64419C15.1517 7.64419 11.3593 11.4366 11.3593 16.1148C11.3593 20.793 15.1517 24.5854 19.8298 24.5854Z" fill="white"/>
<path d="M18.2803 0H21.3793V8.16069H18.2803V0Z" fill="white"/>
<defs>
<linearGradient id="paint0_linear" x1="19.7782" y1="24.2754" x2="19.7782" y2="71.9999" gradientUnits="userSpaceOnUse">
<stop stop-color="#FFA948"/>
<stop offset="0.515625" stop-color="#FF6E14"/>
</linearGradient>
<linearGradient id="paint1_linear" x1="19.7782" y1="24.2754" x2="19.7782" y2="71.9999" gradientUnits="userSpaceOnUse">
<stop stop-color="#FFA948"/>
<stop offset="0.515625" stop-color="#FF6E14"/>
</linearGradient>
</defs>
</svg>
